<svg xmlns="http://www.w3.org/2000/svg" xmlns:xlink="http://www.w3.org/1999/xlink" width="1080" zoomAndPan="magnify" viewBox="0 0 810 1439.999935" height="1920" preserveAspectRatio="xMidYMid meet" version="1.0"><defs><clipPath id="d64e1f5816"><path d="M 521 1158 L 679 1158 L 679 1439.742188 L 521 1439.742188 Z M 521 1158 " clip-rule="nonzero"/></clipPath><clipPath id="c3a5f03c4e"><path d="M 121.5 1081 L 345 1081 L 345 1438 L 121.5 1438 Z M 121.5 1081 " clip-rule="nonzero"/></clipPath><clipPath id="a5d668ed5a"><path d="M 121.5 1207 L 259 1207 L 259 1438 L 121.5 1438 Z M 121.5 1207 " clip-rule="nonzero"/></clipPath><clipPath id="6800a5bba4"><path d="M 550 1229 L 679 1229 L 679 1439.742188 L 550 1439.742188 Z M 550 1229 " clip-rule="nonzero"/></clipPath><clipPath id="34eb4611e5"><path d="M 23 869 L 30 869 L 30 1070.917969 L 23 1070.917969 Z M 23 869 " clip-rule="nonzero"/></clipPath><clipPath id="8055aafecd"><path d="M 571 316.417969 L 577 316.417969 L 577 518 L 571 518 Z M 571 316.417969 " clip-rule="nonzero"/></clipPath></defs><rect x="-81" width="972" fill="#ffffff" y="-143.999994" height="1727.999922" fill-opacity="1"/><rect x="-81" width="972" fill="#000000" y="-143.999994" height="1727.999922" fill-opacity="1"/><path fill="#f79c7f" d="M 333.398438 1337.414062 C 333.398438 1337.414062 319.582031 1350.144531 315.929688 1361.808594 C 313.320312 1370.140625 319.390625 1387.335938 324.429688 1388.019531 C 328.027344 1388.507812 341.246094 1375.144531 348.5 1367.46875 C 351.660156 1364.128906 354.164062 1360.230469 355.882812 1355.96875 L 360.933594 1343.445312 L 333.398438 1337.414062 " fill-opacity="1" fill-rule="nonzero"/><path fill="#f79c7f" d="M 354.621094 1330.824219 C 354.621094 1330.824219 360.699219 1336.898438 367.480469 1348.089844 C 376.851562 1363.566406 391.285156 1368.261719 401.777344 1365.984375 C 414.03125 1363.324219 407.75 1344.625 396.988281 1330.824219 L 354.621094 1330.824219 " fill-opacity="1" fill-rule="nonzero"/><g clip-path="url(#d64e1f5816)"><path fill="#f79c7f" d="M 582.605469 1158.574219 C 582.605469 1160.757812 623.917969 1185.898438 640.332031 1203.398438 C 656.742188 1220.898438 688.503906 1336.757812 674.800781 1376.164062 C 661.089844 1415.574219 649.632812 1439.585938 649.632812 1439.585938 L 567.871094 1439.585938 C 567.871094 1439.585938 574.40625 1413.132812 545.132812 1392.601562 C 524.808594 1378.34375 521.804688 1348.675781 521.804688 1348.675781 L 571.328125 1209.363281 L 588.523438 1217.378906 C 590.230469 1218.171875 591.855469 1219.140625 593.359375 1220.265625 L 613.386719 1235.195312 L 607.257812 1219.140625 C 605.996094 1215.84375 603.703125 1213.042969 600.71875 1211.152344 L 574.996094 1194.851562 L 582.605469 1158.574219 " fill-opacity="1" fill-rule="nonzero"/></g><g clip-path="url(#c3a5f03c4e)"><path fill="#f79c7f" d="M 321.125 1086.371094 C 321.125 1086.371094 177.296875 1203.050781 170.734375 1220.886719 C 164.167969 1238.722656 140.375 1300.214844 140.375 1333.011719 C 140.375 1365.808594 121.503906 1437.140625 121.503906 1437.140625 L 236.542969 1437.140625 C 236.542969 1437.140625 244.011719 1394.292969 267.046875 1383.027344 C 295.308594 1369.207031 317.828125 1348.675781 317.828125 1348.675781 L 301.191406 1156.730469 C 301.191406 1156.730469 333.882812 1130.789062 341.464844 1112.96875 C 349.046875 1095.148438 341.316406 1070.878906 321.125 1086.371094 " fill-opacity="1" fill-rule="nonzero"/></g><path fill="#f47b54" d="M 521.808594 1348.675781 L 523.03125 1356.425781 L 575.21875 1356.425781 C 575.21875 1356.425781 602.335938 1354.691406 602.304688 1333.367188 C 602.296875 1326.945312 654.5625 1302.769531 644.207031 1282.785156 C 623.742188 1243.292969 598.476562 1250.121094 597.890625 1239.214844 C 597.207031 1226.429688 597.011719 1222.988281 597.011719 1222.988281 C 597.011719 1222.988281 588.902344 1216.25 583.796875 1215.976562 C 578.691406 1215.703125 521.808594 1348.675781 521.808594 1348.675781 " fill-opacity="1" fill-rule="nonzero"/><path fill="#f47b54" d="M 217.414062 1173.839844 L 217.414062 1186.101562 C 217.414062 1186.101562 211.835938 1200.335938 182.40625 1244.664062 C 161.617188 1275.980469 202.425781 1336.441406 208.667969 1345.601562 C 219.0625 1360.859375 296.835938 1355.570312 304.9375 1355.527344 C 308.421875 1355.511719 309.949219 1355.3125 309.949219 1355.3125 L 317.828125 1348.675781 L 217.414062 1173.839844 " fill-opacity="1" fill-rule="nonzero"/><path fill="#f47b54" d="M 596.523438 1208.488281 L 595.519531 1168.386719 L 586.71875 1162.007812 L 586.71875 1202.28125 L 596.523438 1208.488281 " fill-opacity="1" fill-rule="nonzero"/><path fill="#231f20" d="M 565.820312 1348.675781 L 239.132812 1348.675781 C 227.140625 1348.675781 217.414062 1338.960938 217.414062 1326.972656 L 217.414062 1156.300781 C 217.414062 1144.3125 227.140625 1134.59375 239.132812 1134.59375 L 565.820312 1134.59375 C 577.816406 1134.59375 587.539062 1144.3125 587.539062 1156.300781 L 587.539062 1326.972656 C 587.539062 1338.960938 577.816406 1348.675781 565.820312 1348.675781 " fill-opacity="1" fill-rule="nonzero"/><path fill="#262262" d="M 553.824219 1334.617188 L 250.589844 1334.617188 C 242.832031 1334.617188 236.542969 1328.332031 236.542969 1320.578125 L 236.542969 1157.847656 C 236.542969 1150.097656 242.832031 1143.808594 250.589844 1143.808594 L 553.824219 1143.808594 C 561.585938 1143.808594 567.871094 1150.097656 567.871094 1157.847656 L 567.871094 1320.578125 C 567.871094 1328.332031 561.585938 1334.617188 553.824219 1334.617188 " fill-opacity="1" fill-rule="nonzero"/><path fill="#131131" d="M 549.964844 1308.8125 L 493.648438 1308.8125 C 491.144531 1308.8125 489.109375 1306.785156 489.109375 1304.28125 L 489.109375 1285.96875 C 489.109375 1283.464844 491.144531 1281.433594 493.648438 1281.433594 L 549.964844 1281.433594 C 552.46875 1281.433594 554.5 1283.464844 554.5 1285.96875 L 554.5 1304.28125 C 554.5 1306.785156 552.46875 1308.8125 549.964844 1308.8125 " fill-opacity="1" fill-rule="nonzero"/><path fill="#131131" d="M 550.390625 1272.9375 L 493.222656 1272.9375 C 490.949219 1272.9375 489.109375 1271.101562 489.109375 1268.828125 L 489.109375 1249.667969 C 489.109375 1247.402344 490.949219 1245.558594 493.222656 1245.558594 L 550.390625 1245.558594 C 552.660156 1245.558594 554.5 1247.402344 554.5 1249.667969 L 554.5 1268.828125 C 554.5 1271.101562 552.660156 1272.9375 550.390625 1272.9375 " fill-opacity="1" fill-rule="nonzero"/><path fill="#ef4136" d="M 544.828125 1302.847656 L 491.8125 1302.847656 C 488.394531 1302.847656 485.625 1300.082031 485.625 1296.664062 L 485.625 1281.652344 C 485.625 1278.238281 488.394531 1275.472656 491.8125 1275.472656 L 544.828125 1275.472656 C 548.246094 1275.472656 551.011719 1278.238281 551.011719 1281.652344 L 551.011719 1296.664062 C 551.011719 1300.082031 548.246094 1302.847656 544.828125 1302.847656 " fill-opacity="1" fill-rule="nonzero"/><path fill="#009444" d="M 544.410156 1268.699219 L 492.222656 1268.699219 C 488.578125 1268.699219 485.625 1265.746094 485.625 1262.101562 L 485.625 1247.921875 C 485.625 1244.277344 488.578125 1241.320312 492.222656 1241.320312 L 544.410156 1241.320312 C 548.058594 1241.320312 551.011719 1244.277344 551.011719 1247.921875 L 551.011719 1262.101562 C 551.011719 1265.746094 548.058594 1268.699219 544.410156 1268.699219 " fill-opacity="1" fill-rule="nonzero"/><path fill="#2766a2" d="M 295.542969 1258.820312 C 295.542969 1258.820312 295.539062 1258.820312 295.539062 1258.820312 C 290.214844 1258.816406 285.320312 1257.488281 280.859375 1255.285156 C 279.679688 1253.800781 278.527344 1252.285156 277.398438 1250.753906 C 282.75 1254.089844 288.800781 1256.21875 295.542969 1256.21875 C 296.300781 1256.21875 297.074219 1256.191406 297.851562 1256.136719 C 330.644531 1253.796875 327.921875 1216.332031 348.617188 1214.769531 C 349.609375 1214.699219 350.558594 1214.664062 351.46875 1214.664062 C 368.285156 1214.664062 372.171875 1226.972656 378.410156 1237.296875 C 378.140625 1237.703125 377.867188 1238.113281 377.597656 1238.523438 C 371.804688 1228.511719 367.550781 1217.261719 351.472656 1217.261719 L 351.46875 1217.261719 C 350.558594 1217.261719 349.609375 1217.300781 348.617188 1217.375 C 327.921875 1218.933594 330.644531 1256.394531 297.851562 1258.738281 C 297.074219 1258.792969 296.300781 1258.820312 295.542969 1258.820312 M 430.90625 1232.625 C 430.585938 1232.167969 430.269531 1231.707031 429.964844 1231.253906 C 443.230469 1214.078125 454.644531 1191.96875 467.992188 1191.648438 L 467.992188 1194.25 C 454.960938 1194.5625 443.769531 1215.640625 430.90625 1232.625 " fill-opacity="1" fill-rule="nonzero"/><path fill="#413c91" d="M 324.242188 1282.789062 C 324.199219 1282.789062 324.148438 1282.789062 324.101562 1282.789062 C 307.765625 1282.730469 292.976562 1270.535156 280.863281 1255.289062 C 285.320312 1257.488281 290.214844 1258.820312 295.539062 1258.820312 C 295.539062 1258.820312 295.542969 1258.820312 295.542969 1258.820312 C 296.304688 1258.820312 297.074219 1258.792969 297.851562 1258.738281 C 330.644531 1256.394531 327.921875 1218.933594 348.617188 1217.375 C 349.605469 1217.300781 350.558594 1217.261719 351.46875 1217.261719 L 351.472656 1217.261719 C 367.546875 1217.265625 371.804688 1228.515625 377.597656 1238.523438 C 364.511719 1258.375 350.421875 1282.789062 324.242188 1282.789062 " fill-opacity="1" fill-rule="nonzero"/><path fill="#425db1" d="M 295.542969 1258.820312 C 295.542969 1258.820312 295.539062 1258.820312 295.539062 1258.820312 C 295.539062 1258.820312 295.542969 1258.820312 295.542969 1258.820312 M 295.542969 1258.820312 C 296.300781 1258.820312 297.074219 1258.792969 297.851562 1258.738281 C 297.074219 1258.792969 296.304688 1258.820312 295.542969 1258.820312 M 348.617188 1217.375 C 349.609375 1217.300781 350.558594 1217.261719 351.46875 1217.261719 C 350.558594 1217.261719 349.605469 1217.300781 348.617188 1217.375 M 351.472656 1217.261719 L 351.46875 1217.261719 L 351.472656 1217.261719 " fill-opacity="1" fill-rule="nonzero"/><path fill="#413c91" d="M 467.992188 1252.144531 C 446.078125 1250.507812 437.121094 1241.523438 430.90625 1232.625 C 443.769531 1215.640625 454.960938 1194.5625 467.992188 1194.25 L 467.992188 1252.144531 " fill-opacity="1" fill-rule="nonzero"/><path fill="#514e81" d="M 551.011719 1186.558594 L 485.625 1186.558594 L 485.625 1160.816406 L 551.011719 1160.816406 L 551.011719 1186.558594 " fill-opacity="1" fill-rule="nonzero"/><path fill="#514e81" d="M 551.011719 1220.59375 L 485.625 1220.59375 L 485.625 1194.851562 L 551.011719 1194.851562 L 551.011719 1220.59375 " fill-opacity="1" fill-rule="nonzero"/><path fill="#d4d3e0" d="M 500.859375 1178.554688 L 500.859375 1170.546875 C 500.382812 1170.867188 499.421875 1171.226562 498.894531 1171.316406 L 498.894531 1170.164062 C 499.675781 1169.96875 500.613281 1169.417969 501.261719 1168.785156 L 502.34375 1168.785156 L 502.34375 1178.554688 L 500.859375 1178.554688 " fill-opacity="1" fill-rule="nonzero"/><path fill="#d4d3e0" d="M 504.492188 1178.554688 L 504.492188 1178.460938 C 504.492188 1177 505.386719 1175.5625 507.410156 1174.039062 C 508.933594 1172.886719 509.359375 1172.511719 509.359375 1171.484375 C 509.359375 1170.53125 508.859375 1169.84375 507.757812 1169.84375 C 506.621094 1169.84375 506.105469 1170.453125 505.917969 1171.578125 L 504.496094 1171.578125 C 504.660156 1169.921875 505.722656 1168.652344 507.757812 1168.652344 C 510 1168.652344 510.847656 1170.070312 510.847656 1171.453125 C 510.847656 1172.914062 510.230469 1173.507812 508.429688 1174.871094 C 507.117188 1175.871094 506.445312 1176.609375 506.214844 1177.292969 L 511.230469 1177.292969 L 511.027344 1178.554688 L 504.492188 1178.554688 " fill-opacity="1" fill-rule="nonzero"/><path fill="#d4d3e0" d="M 516.566406 1178.554688 L 516.566406 1176.351562 L 518.050781 1176.351562 L 518.050781 1178.554688 Z M 516.566406 1173.257812 L 516.566406 1171.0625 L 518.050781 1171.0625 L 518.050781 1173.257812 L 516.566406 1173.257812 " fill-opacity="1" fill-rule="nonzero"/><path fill="#d4d3e0" d="M 523.8125 1171.179688 C 523.960938 1169.980469 524.808594 1168.652344 526.953125 1168.652344 C 529.015625 1168.652344 529.949219 1169.886719 529.949219 1171.199219 C 529.949219 1172.378906 529.253906 1172.976562 528.671875 1173.203125 L 528.671875 1173.242188 C 529.496094 1173.511719 530.359375 1174.207031 530.359375 1175.671875 C 530.359375 1177.195312 529.417969 1178.734375 526.929688 1178.734375 C 524.625 1178.734375 523.6875 1177.296875 523.550781 1176.003906 L 524.984375 1176.003906 C 525.167969 1176.828125 525.785156 1177.554688 526.988281 1177.554688 C 528.304688 1177.554688 528.871094 1176.683594 528.871094 1175.671875 C 528.871094 1174.453125 528.136719 1173.875 526.855469 1173.875 L 526.128906 1173.875 L 526.128906 1172.703125 L 526.746094 1172.703125 C 527.960938 1172.703125 528.488281 1172.238281 528.488281 1171.261719 C 528.488281 1170.421875 527.9375 1169.84375 526.90625 1169.84375 C 525.773438 1169.84375 525.378906 1170.457031 525.207031 1171.179688 L 523.8125 1171.179688 " fill-opacity="1" fill-rule="nonzero"/><path fill="#d4d3e0" d="M 536.347656 1172.566406 C 536.347656 1171.757812 536.359375 1170.867188 536.382812 1170.238281 C 535.992188 1171 534.214844 1173.453125 533.199219 1174.882812 L 536.347656 1174.882812 Z M 536.347656 1178.554688 L 536.347656 1176.109375 L 531.808594 1176.109375 L 531.808594 1174.8125 L 536.167969 1168.828125 L 537.730469 1168.828125 L 537.730469 1174.882812 L 538.972656 1174.882812 L 538.820312 1176.109375 L 537.730469 1176.109375 L 537.730469 1178.554688 L 536.347656 1178.554688 " fill-opacity="1" fill-rule="nonzero"/><path fill="#d4d3e0" d="M 498.527344 1214.242188 L 498.527344 1200.652344 L 499.503906 1200.652344 L 499.503906 1214.242188 Z M 496.820312 1209.839844 C 497.054688 1210.960938 497.949219 1211.53125 499.039062 1211.53125 C 500.4375 1211.53125 501.140625 1210.960938 501.140625 1209.859375 C 501.140625 1208.902344 500.664062 1208.316406 498.867188 1207.820312 C 496.351562 1207.109375 495.445312 1206.265625 495.445312 1204.664062 C 495.445312 1202.863281 496.945312 1201.742188 498.894531 1201.742188 C 501.585938 1201.742188 502.421875 1203.316406 502.542969 1204.464844 L 500.964844 1204.464844 C 500.769531 1203.707031 500.296875 1202.964844 498.875 1202.964844 C 497.519531 1202.964844 497.042969 1203.675781 497.042969 1204.476562 C 497.042969 1205.390625 497.519531 1205.894531 499.332031 1206.371094 C 501.992188 1207.085938 502.78125 1208.1875 502.78125 1209.679688 C 502.78125 1211.691406 501.304688 1212.785156 498.976562 1212.777344 C 496.714844 1212.769531 495.394531 1211.535156 495.214844 1209.839844 L 496.820312 1209.839844 " fill-opacity="1" fill-rule="nonzero"/><path fill="#d4d3e0" d="M 508.296875 1212.660156 L 508.296875 1212.558594 C 508.296875 1210.9375 509.289062 1209.335938 511.539062 1207.644531 C 513.234375 1206.367188 513.699219 1205.949219 513.699219 1204.804688 C 513.699219 1203.75 513.148438 1202.984375 511.921875 1202.984375 C 510.664062 1202.984375 510.089844 1203.660156 509.878906 1204.910156 L 508.300781 1204.910156 C 508.484375 1203.070312 509.664062 1201.660156 511.921875 1201.660156 C 514.417969 1201.660156 515.355469 1203.234375 515.355469 1204.769531 C 515.355469 1206.394531 514.667969 1207.058594 512.671875 1208.570312 C 511.210938 1209.679688 510.464844 1210.5 510.210938 1211.257812 L 515.78125 1211.257812 L 515.558594 1212.660156 L 508.296875 1212.660156 " fill-opacity="1" fill-rule="nonzero"/><path fill="#d4d3e0" d="M 517.210938 1204.464844 C 517.378906 1203.136719 518.324219 1201.660156 520.703125 1201.660156 C 522.996094 1201.660156 524.03125 1203.035156 524.03125 1204.488281 C 524.03125 1205.804688 523.257812 1206.464844 522.613281 1206.71875 L 522.613281 1206.757812 C 523.527344 1207.058594 524.488281 1207.832031 524.488281 1209.457031 C 524.488281 1211.148438 523.441406 1212.855469 520.675781 1212.855469 C 518.117188 1212.855469 517.074219 1211.265625 516.925781 1209.828125 L 518.515625 1209.828125 C 518.71875 1210.742188 519.40625 1211.546875 520.742188 1211.546875 C 522.207031 1211.546875 522.828125 1210.582031 522.828125 1209.453125 C 522.828125 1208.105469 522.019531 1207.460938 520.597656 1207.460938 L 519.78125 1207.460938 L 519.78125 1206.160156 L 520.472656 1206.160156 C 521.824219 1206.160156 522.40625 1205.640625 522.40625 1204.554688 C 522.40625 1203.625 521.796875 1202.984375 520.644531 1202.984375 C 519.390625 1202.984375 518.949219 1203.667969 518.765625 1204.464844 L 517.210938 1204.464844 " fill-opacity="1" fill-rule="nonzero"/><path fill="#d4d3e0" d="M 526.273438 1212.660156 L 526.273438 1210.148438 L 527.972656 1210.148438 L 527.972656 1212.660156 L 526.273438 1212.660156 " fill-opacity="1" fill-rule="nonzero"/><path fill="#d4d3e0" d="M 534.46875 1206.011719 C 534.46875 1205.113281 534.480469 1204.121094 534.507812 1203.421875 C 534.074219 1204.269531 532.097656 1206.992188 530.96875 1208.582031 L 534.46875 1208.582031 Z M 534.46875 1212.660156 L 534.46875 1209.945312 L 529.425781 1209.945312 L 529.425781 1208.496094 L 534.265625 1201.855469 L 536 1201.855469 L 536 1208.582031 L 537.382812 1208.582031 L 537.214844 1209.945312 L 536 1209.945312 L 536 1212.660156 L 534.46875 1212.660156 " fill-opacity="1" fill-rule="nonzero"/><path fill="#d4d3e0" d="M 399.636719 1172.414062 L 399.636719 1158.824219 L 400.617188 1158.824219 L 400.617188 1172.414062 Z M 397.933594 1168.011719 C 398.164062 1169.132812 399.0625 1169.699219 400.148438 1169.699219 C 401.550781 1169.699219 402.25 1169.132812 402.25 1168.027344 C 402.25 1167.074219 401.777344 1166.488281 399.980469 1165.988281 C 397.464844 1165.28125 396.554688 1164.4375 396.554688 1162.835938 C 396.554688 1161.035156 398.058594 1159.914062 400.007812 1159.914062 C 402.699219 1159.914062 403.53125 1161.488281 403.65625 1162.636719 L 402.078125 1162.636719 C 401.878906 1161.878906 401.40625 1161.136719 399.984375 1161.136719 C 398.632812 1161.136719 398.152344 1161.847656 398.152344 1162.648438 C 398.152344 1163.558594 398.632812 1164.0625 400.445312 1164.542969 C 403.105469 1165.257812 403.890625 1166.359375 403.890625 1167.851562 C 403.890625 1169.863281 402.417969 1170.953125 400.085938 1170.945312 C 397.824219 1170.9375 396.503906 1169.707031 396.324219 1168.011719 L 397.933594 1168.011719 " fill-opacity="1" fill-rule="nonzero"/><path fill="#d4d3e0" d="M 411.535156 1170.828125 L 411.535156 1161.933594 C 411.003906 1162.292969 409.9375 1162.691406 409.351562 1162.789062 L 409.351562 1161.507812 C 410.21875 1161.292969 411.265625 1160.683594 411.980469 1159.984375 L 413.183594 1159.984375 L 413.183594 1170.828125 L 411.535156 1170.828125 " fill-opacity="1" fill-rule="nonzero"/><path fill="#d4d3e0" d="M 415.566406 1170.828125 L 415.566406 1170.730469 C 415.566406 1169.109375 416.5625 1167.507812 418.808594 1165.816406 C 420.503906 1164.535156 420.972656 1164.121094 420.972656 1162.976562 C 420.972656 1161.921875 420.417969 1161.160156 419.195312 1161.160156 C 417.933594 1161.160156 417.363281 1161.832031 417.148438 1163.082031 L 415.574219 1163.082031 C 415.757812 1161.246094 416.933594 1159.832031 419.195312 1159.832031 C 421.6875 1159.832031 422.628906 1161.410156 422.628906 1162.941406 C 422.628906 1164.5625 421.9375 1165.226562 419.945312 1166.738281 C 418.484375 1167.851562 417.738281 1168.667969 417.484375 1169.429688 L 423.050781 1169.429688 L 422.828125 1170.828125 L 415.566406 1170.828125 " fill-opacity="1" fill-rule="nonzero"/><path fill="#d4d3e0" d="M 424.480469 1162.636719 C 424.648438 1161.304688 425.59375 1159.832031 427.976562 1159.832031 C 430.269531 1159.832031 431.304688 1161.207031 431.304688 1162.660156 C 431.304688 1163.976562 430.527344 1164.636719 429.882812 1164.886719 L 429.882812 1164.929688 C 430.800781 1165.226562 431.757812 1166.003906 431.757812 1167.632812 C 431.757812 1169.320312 430.714844 1171.027344 427.949219 1171.027344 C 425.390625 1171.027344 424.347656 1169.4375 424.195312 1168 L 425.789062 1168 C 425.992188 1168.914062 426.675781 1169.71875 428.015625 1169.71875 C 429.476562 1169.71875 430.101562 1168.753906 430.101562 1167.625 C 430.101562 1166.273438 429.289062 1165.632812 427.867188 1165.632812 L 427.054688 1165.632812 L 427.054688 1164.332031 L 427.742188 1164.332031 C 429.09375 1164.332031 429.675781 1163.8125 429.675781 1162.726562 C 429.675781 1161.796875 429.066406 1161.160156 427.917969 1161.160156 C 426.664062 1161.160156 426.222656 1161.839844 426.035156 1162.636719 L 424.480469 1162.636719 " fill-opacity="1" fill-rule="nonzero"/><path fill="#d4d3e0" d="M 432.488281 1172.714844 C 433.367188 1170.820312 433.585938 1169.386719 433.667969 1168.324219 L 435.3125 1168.324219 C 435.164062 1169.824219 434.628906 1171.546875 433.785156 1172.714844 L 432.488281 1172.714844 " fill-opacity="1" fill-rule="nonzero"/><path fill="#d4d3e0" d="M 441.5 1164.179688 C 441.5 1163.28125 441.511719 1162.292969 441.542969 1161.59375 C 441.105469 1162.441406 439.128906 1165.164062 438 1166.753906 L 441.5 1166.753906 Z M 441.5 1170.828125 L 441.5 1168.117188 L 436.460938 1168.117188 L 436.460938 1166.667969 L 441.296875 1160.027344 L 443.035156 1160.027344 L 443.035156 1166.753906 L 444.414062 1166.753906 L 444.246094 1168.117188 L 443.035156 1168.117188 L 443.035156 1170.828125 L 441.5 1170.828125 " fill-opacity="1" fill-rule="nonzero"/><path fill="#d4d3e0" d="M 452.777344 1161.410156 L 448.292969 1161.410156 C 448.199219 1162.21875 447.945312 1163.742188 447.84375 1164.296875 C 448.292969 1163.820312 448.980469 1163.484375 450.050781 1163.484375 C 452.058594 1163.484375 453.320312 1164.886719 453.320312 1167.070312 C 453.320312 1169.171875 452.207031 1171.027344 449.527344 1171.027344 C 447.558594 1171.027344 446.128906 1169.953125 445.855469 1168.097656 L 447.484375 1168.097656 C 447.726562 1169.039062 448.402344 1169.71875 449.578125 1169.71875 C 450.980469 1169.71875 451.671875 1168.714844 451.671875 1167.191406 C 451.671875 1165.847656 451.121094 1164.832031 449.671875 1164.832031 C 448.421875 1164.832031 447.90625 1165.359375 447.554688 1166.183594 L 446.058594 1165.929688 C 446.375 1164.523438 446.796875 1161.414062 446.960938 1160.027344 L 453.003906 1160.027344 L 452.777344 1161.410156 " fill-opacity="1" fill-rule="nonzero"/><path fill="#d4d3e0" d="M 269.816406 1160.671875 L 269.816406 1166.839844 C 269.816406 1169.179688 271.089844 1169.824219 272.363281 1169.824219 C 273.855469 1169.824219 274.886719 1169.121094 274.886719 1166.839844 L 274.886719 1160.671875 L 276.417969 1160.671875 L 276.417969 1166.761719 C 276.417969 1170.128906 274.535156 1171.074219 272.335938 1171.074219 C 270.160156 1171.074219 268.273438 1170.0625 268.273438 1166.851562 L 268.273438 1160.671875 L 269.816406 1160.671875 " fill-opacity="1" fill-rule="nonzero"/><path fill="#d4d3e0" d="M 279.59375 1168.054688 C 279.867188 1169.246094 280.691406 1169.871094 282.121094 1169.871094 C 283.644531 1169.871094 284.257812 1169.175781 284.257812 1168.246094 C 284.257812 1167.253906 283.753906 1166.714844 281.75 1166.234375 C 279.257812 1165.632812 278.445312 1164.769531 278.445312 1163.335938 C 278.445312 1161.761719 279.609375 1160.523438 281.929688 1160.523438 C 284.433594 1160.523438 285.453125 1161.945312 285.59375 1163.324219 L 284.046875 1163.324219 C 283.875 1162.460938 283.347656 1161.726562 281.878906 1161.726562 C 280.695312 1161.726562 280.023438 1162.25 280.023438 1163.183594 C 280.023438 1164.101562 280.574219 1164.464844 282.347656 1164.890625 C 285.292969 1165.601562 285.835938 1166.734375 285.835938 1168.078125 C 285.835938 1169.777344 284.570312 1171.070312 282.019531 1171.070312 C 279.429688 1171.070312 278.265625 1169.6875 278.046875 1168.054688 L 279.59375 1168.054688 " fill-opacity="1" fill-rule="nonzero"/><path fill="#d4d3e0" d="M 289.289062 1169.667969 L 291.351562 1169.667969 C 293.6875 1169.667969 294.785156 1167.984375 294.785156 1165.722656 C 294.785156 1163.761719 293.78125 1161.949219 291.359375 1161.949219 L 289.289062 1161.949219 Z M 287.765625 1160.671875 L 291.511719 1160.671875 C 294.421875 1160.671875 296.378906 1162.640625 296.378906 1165.695312 C 296.378906 1168.730469 294.472656 1170.945312 291.457031 1170.945312 L 287.765625 1170.945312 L 287.765625 1160.671875 " fill-opacity="1" fill-rule="nonzero"/><path fill="#d4d3e0" d="M 297.132812 1171.53125 L 301.261719 1160.8125 L 302.269531 1160.8125 L 298.121094 1171.53125 L 297.132812 1171.53125 " fill-opacity="1" fill-rule="nonzero"/><path fill="#d4d3e0" d="M 308.511719 1166.269531 L 304.636719 1166.269531 L 304.636719 1169.863281 L 308.957031 1169.863281 L 308.957031 1170.941406 L 303.347656 1170.941406 L 303.347656 1160.972656 L 308.734375 1160.972656 L 308.734375 1162.054688 L 304.636719 1162.054688 L 304.636719 1165.203125 L 308.511719 1165.203125 L 308.511719 1166.269531 " fill-opacity="1" fill-rule="nonzero"/><path fill="#d4d3e0" d="M 311.917969 1160.972656 L 311.917969 1166.875 C 311.917969 1169.105469 312.90625 1170.054688 314.242188 1170.054688 C 315.71875 1170.054688 316.667969 1169.078125 316.667969 1166.875 L 316.667969 1160.972656 L 317.96875 1160.972656 L 317.96875 1166.785156 C 317.96875 1169.847656 316.355469 1171.101562 314.195312 1171.101562 C 312.152344 1171.101562 310.613281 1169.933594 310.613281 1166.84375 L 310.613281 1160.972656 L 311.917969 1160.972656 " fill-opacity="1" fill-rule="nonzero"/><path fill="#d4d3e0" d="M 321.492188 1165.648438 L 322.808594 1165.648438 C 324.183594 1165.648438 325.058594 1164.894531 325.058594 1163.753906 C 325.058594 1162.46875 324.125 1161.90625 322.765625 1161.894531 C 322.144531 1161.894531 321.699219 1161.949219 321.492188 1162.007812 Z M 320.203125 1161.105469 C 320.855469 1160.976562 321.785156 1160.902344 322.675781 1160.902344 C 324.050781 1160.902344 324.941406 1161.148438 325.5625 1161.714844 C 326.0625 1162.15625 326.34375 1162.835938 326.34375 1163.609375 C 326.34375 1164.921875 325.515625 1165.796875 324.464844 1166.152344 L 324.464844 1166.195312 C 325.234375 1166.460938 325.695312 1167.171875 325.929688 1168.207031 C 326.257812 1169.59375 326.496094 1170.554688 326.699219 1170.941406 L 325.367188 1170.941406 C 325.207031 1170.660156 324.984375 1169.804688 324.703125 1168.5625 C 324.40625 1167.183594 323.875 1166.667969 322.707031 1166.625 L 321.492188 1166.625 L 321.492188 1170.941406 L 320.203125 1170.941406 L 320.203125 1161.105469 " fill-opacity="1" fill-rule="nonzero"/><path fill="#1b75bc" d="M 472.917969 1190.785156 C 472.917969 1193.652344 470.589844 1195.976562 467.722656 1195.976562 C 464.847656 1195.976562 462.519531 1193.652344 462.519531 1190.785156 C 462.519531 1187.917969 464.847656 1185.589844 467.722656 1185.589844 C 470.589844 1185.589844 472.917969 1187.917969 472.917969 1190.785156 " fill-opacity="1" fill-rule="nonzero"/><path fill="#27aae1" d="M 470.867188 1191.058594 C 470.867188 1192.792969 469.457031 1194.199219 467.71875 1194.199219 C 465.984375 1194.199219 464.574219 1192.792969 464.574219 1191.058594 C 464.574219 1189.320312 465.984375 1187.914062 467.71875 1187.914062 C 469.457031 1187.914062 470.867188 1189.320312 470.867188 1191.058594 " fill-opacity="1" fill-rule="nonzero"/><path fill="#29307e" d="M 280.863281 1255.289062 C 259.105469 1244.539062 247.75 1212.941406 247.75 1212.941406 C 247.75 1212.941406 259.113281 1244.53125 280.859375 1255.285156 C 280.863281 1255.289062 280.859375 1255.285156 280.863281 1255.289062 M 277.398438 1250.75 C 257.902344 1238.585938 247.75 1210.339844 247.75 1210.339844 L 247.75 1195.550781 C 247.75 1195.550781 259.105469 1225.863281 277.398438 1250.75 " fill-opacity="1" fill-rule="nonzero"/><path fill="#294a97" d="M 280.863281 1255.285156 C 259.113281 1244.53125 247.75 1212.941406 247.75 1212.941406 L 247.75 1210.339844 C 247.75 1210.339844 257.902344 1238.585938 277.398438 1250.75 C 278.527344 1252.285156 279.683594 1253.800781 280.863281 1255.285156 " fill-opacity="1" fill-rule="nonzero"/><path fill="#29307e" d="M 401.332031 1251.164062 C 388.636719 1251.164062 382.910156 1244.746094 378.410156 1237.296875 C 386.824219 1224.625 394.914062 1214.101562 405.648438 1213.496094 C 406.226562 1213.464844 406.78125 1213.449219 407.328125 1213.449219 C 420.007812 1213.449219 423.8125 1222.101562 429.964844 1231.253906 C 421.503906 1242.210938 412.285156 1251.164062 401.332031 1251.164062 M 386.125 1249.128906 C 382.472656 1246.324219 379.910156 1242.519531 377.597656 1238.523438 C 379.910156 1242.519531 382.472656 1246.320312 386.125 1249.128906 " fill-opacity="1" fill-rule="nonzero"/><path fill="#294a97" d="M 401.332031 1253.761719 C 394.578125 1253.761719 389.800781 1251.949219 386.125 1249.128906 C 382.46875 1246.324219 379.910156 1242.523438 377.597656 1238.523438 C 377.867188 1238.113281 378.136719 1237.703125 378.410156 1237.296875 C 382.910156 1244.746094 388.636719 1251.164062 401.332031 1251.164062 C 412.285156 1251.164062 421.503906 1242.210938 429.964844 1231.25 C 430.273438 1231.710938 430.582031 1232.167969 430.90625 1232.625 C 422.183594 1244.136719 412.691406 1253.761719 401.332031 1253.761719 " fill-opacity="1" fill-rule="nonzero"/><path fill="#343a90" d="M 467.992188 1297.679688 L 247.75 1297.679688 L 247.75 1295.078125 L 467.992188 1295.078125 L 467.992188 1297.679688 " fill-opacity="1" fill-rule="nonzero"/><path fill="#343a90" d="M 467.992188 1295.078125 L 247.75 1295.078125 L 247.75 1212.941406 C 247.75 1212.941406 259.105469 1244.539062 280.863281 1255.289062 C 292.976562 1270.535156 307.765625 1282.730469 324.101562 1282.785156 C 324.148438 1282.785156 324.199219 1282.785156 324.246094 1282.785156 C 350.421875 1282.785156 364.515625 1258.371094 377.597656 1238.523438 C 379.910156 1242.519531 382.472656 1246.320312 386.125 1249.128906 C 389.800781 1251.949219 394.582031 1253.761719 401.332031 1253.761719 C 412.691406 1253.761719 422.183594 1244.132812 430.90625 1232.621094 C 437.125 1241.523438 446.078125 1250.507812 467.992188 1252.144531 L 467.992188 1295.078125 " fill-opacity="1" fill-rule="nonzero"/><path fill="#00aeef" d="M 405.394531 1210.636719 C 377.636719 1212.195312 367.507812 1279.714844 323.785156 1279.570312 C 280.0625 1279.421875 247.75 1189.367188 247.75 1189.367188 L 247.75 1195.550781 C 247.75 1195.550781 280.378906 1282.636719 324.101562 1282.785156 C 367.824219 1282.933594 377.890625 1215.054688 405.648438 1213.492188 C 433.40625 1211.933594 421.382812 1248.660156 467.996094 1252.144531 L 467.996094 1248.820312 C 421.382812 1245.339844 433.152344 1209.078125 405.394531 1210.636719 " fill-opacity="1" fill-rule="nonzero"/><path fill="#1b75bc" d="M 472.917969 1249.089844 C 472.917969 1251.957031 470.59375 1254.285156 467.722656 1254.285156 C 464.851562 1254.285156 462.523438 1251.957031 462.523438 1249.089844 C 462.523438 1246.21875 464.851562 1243.894531 467.722656 1243.894531 C 470.59375 1243.894531 472.917969 1246.21875 472.917969 1249.089844 " fill-opacity="1" fill-rule="nonzero"/><path fill="#00aeef" d="M 470.867188 1249.4375 C 470.867188 1251.175781 469.457031 1252.582031 467.71875 1252.582031 C 465.984375 1252.582031 464.574219 1251.175781 464.574219 1249.4375 C 464.574219 1247.703125 465.984375 1246.296875 467.71875 1246.296875 C 469.457031 1246.296875 470.867188 1247.703125 470.867188 1249.4375 " fill-opacity="1" fill-rule="nonzero"/><path fill="#b0e1b7" d="M 516.957031 1246.8125 L 508.476562 1260.203125 L 525.164062 1260.203125 L 516.957031 1246.8125 " fill-opacity="1" fill-rule="nonzero"/><path fill="#fcd9d7" d="M 516.683594 1295.855469 L 525.164062 1282.464844 L 508.476562 1282.464844 L 516.683594 1295.855469 " fill-opacity="1" fill-rule="nonzero"/><path fill="#27aae1" d="M 467.992188 1311.546875 L 247.75 1311.546875 L 247.75 1308.816406 L 467.992188 1308.816406 L 467.992188 1311.546875 " fill-opacity="1" fill-rule="nonzero"/><path fill="#27aae1" d="M 467.992188 1179.917969 L 247.75 1179.917969 L 247.75 1177.1875 L 467.992188 1177.1875 L 467.992188 1179.917969 " fill-opacity="1" fill-rule="nonzero"/><g clip-path="url(#a5d668ed5a)"><path fill="#f9b099" d="M 159.429688 1289.160156 C 159.429688 1289.160156 186.238281 1251.011719 208.667969 1239.507812 C 231.097656 1228.003906 238.183594 1198.230469 251.179688 1211.207031 C 268.933594 1228.9375 249.992188 1258.671875 232.914062 1272.9375 C 209.175781 1292.769531 235.878906 1313.1875 217.414062 1355.101562 C 207.871094 1376.761719 169.277344 1409.003906 159.429688 1437.140625 L 121.503906 1437.140625 C 121.503906 1437.140625 138.484375 1338.078125 141.023438 1322.609375 C 143.5625 1307.140625 159.429688 1289.160156 159.429688 1289.160156 " fill-opacity="1" fill-rule="nonzero"/></g><path fill="#1f1c24" d="M 587.535156 1295.078125 C 587.34375 1295.078125 583.648438 1294.941406 567.875 1284.578125 L 567.875 1255.226562 L 587.539062 1269.484375 L 587.539062 1295.078125 C 587.539062 1295.078125 587.539062 1295.078125 587.535156 1295.078125 " fill-opacity="1" fill-rule="nonzero"/><path fill="#221e57" d="M 567.871094 1284.578125 C 566.417969 1283.617188 564.855469 1282.574219 563.1875 1281.433594 C 558.722656 1278.390625 555.710938 1274.875 553.71875 1271.238281 C 554.210938 1270.558594 554.5 1269.730469 554.5 1268.828125 L 554.5 1249.667969 C 554.5 1247.875 553.351562 1246.351562 551.746094 1245.789062 C 552.066406 1244.617188 552.292969 1243.9375 552.246094 1243.898438 L 567.871094 1255.230469 L 567.871094 1284.578125 " fill-opacity="1" fill-rule="nonzero"/><path fill="#131131" d="M 553.71875 1271.238281 C 552.304688 1268.65625 551.40625 1266.011719 550.878906 1263.4375 C 550.96875 1263.003906 551.011719 1262.5625 551.011719 1262.101562 L 551.011719 1248.925781 C 551.261719 1247.675781 551.527344 1246.609375 551.746094 1245.789062 C 553.351562 1246.351562 554.5 1247.875 554.5 1249.667969 L 554.5 1268.828125 C 554.5 1269.730469 554.210938 1270.5625 553.71875 1271.238281 " fill-opacity="1" fill-rule="nonzero"/><path fill="#047740" d="M 550.878906 1263.4375 C 549.726562 1257.847656 550.289062 1252.582031 551.011719 1248.925781 L 551.011719 1262.101562 C 551.011719 1262.558594 550.96875 1263.003906 550.878906 1263.4375 " fill-opacity="1" fill-rule="nonzero"/><g clip-path="url(#6800a5bba4)"><path fill="#f9b099" d="M 567.875 1231.769531 C 554.503906 1223.972656 551.128906 1236.304688 550.527344 1242.910156 C 549.613281 1252.921875 558.894531 1273.667969 575.367188 1283.429688 C 595.027344 1295.078125 594.875 1304.425781 594.71875 1313.128906 C 594.566406 1321.339844 584.804688 1336.339844 589.726562 1364.136719 C 592.035156 1377.195312 599.339844 1386.503906 599.976562 1395.699219 C 601.210938 1413.527344 596.5625 1439.585938 596.5625 1439.585938 L 658.113281 1439.585938 C 658.113281 1439.585938 674.394531 1379.863281 677.574219 1362.578125 C 683.871094 1328.285156 659.628906 1288.140625 632.820312 1273.925781 C 613.476562 1263.671875 584.449219 1241.429688 567.875 1231.769531 " fill-opacity="1" fill-rule="nonzero"/></g><path fill="#f47b54" d="M 319.230469 1354.65625 L 356.410156 1354.65625 L 358.824219 1348.675781 L 323.28125 1348.675781 L 319.230469 1354.65625 " fill-opacity="1" fill-rule="nonzero"/><path fill="#f47b54" d="M 367.789062 1348.675781 C 368.660156 1350.222656 371.144531 1353.378906 372.0625 1354.402344 L 408.324219 1354.402344 C 408.324219 1354.402344 407.703125 1350.402344 406.949219 1348.675781 L 367.789062 1348.675781 " fill-opacity="1" fill-rule="nonzero"/><path fill="#f69576" d="M 613.386719 1235.191406 L 626.375 1242.765625 C 626.375 1242.765625 617.089844 1214.875 609.65625 1210.144531 C 602.230469 1205.414062 596.523438 1201.855469 596.523438 1201.855469 L 596.523438 1208.492188 C 596.523438 1208.492188 604.546875 1212.046875 607.535156 1219.863281 C 610.519531 1227.679688 613.386719 1235.191406 613.386719 1235.191406 " fill-opacity="1" fill-rule="nonzero"/><path fill="#ff0000" d="M 195.902344 803.988281 L 221.117188 803.988281 L 221.117188 907.789062 L 195.902344 907.789062 Z M 195.902344 803.988281 " fill-opacity="1" fill-rule="evenodd"/><path stroke-linecap="round" transform="matrix(0.500625, 0.000100119, 0.000100125, 0.602384, 78.618542, -296.158794)" fill="none" stroke-linejoin="round" d="M 259.028441 1700.497369 L 259.410476 2092.131621 " stroke="#ff0000" stroke-width="9.06" stroke-opacity="1" stroke-miterlimit="1.5"/><path fill="#ff0000" d="M 625.574219 533.277344 L 650.789062 533.277344 L 650.789062 637.078125 L 625.574219 637.078125 Z M 625.574219 533.277344 " fill-opacity="1" fill-rule="evenodd"/><path stroke-linecap="round" transform="matrix(0.500625, 0.000100119, 0.000100125, 0.602384, 508.29127, -566.871187)" fill="none" stroke-linejoin="round" d="M 259.034538 1700.499783 L 259.408772 2092.127552 " stroke="#ff0000" stroke-width="9.06" stroke-opacity="1" stroke-miterlimit="1.5"/><path fill="#ff0000" d="M 162.289062 712.148438 L 187.5 712.148438 L 187.5 815.945312 L 162.289062 815.945312 Z M 162.289062 712.148438 " fill-opacity="1" fill-rule="evenodd"/><path stroke-linecap="round" transform="matrix(0.500625, 0.000100119, 0.000100125, 0.602384, 45.0051, -388.000796)" fill="none" stroke-linejoin="round" d="M 259.028761 1700.500951 L 259.410798 2092.128719 " stroke="#ff0000" stroke-width="9.06" stroke-opacity="1" stroke-miterlimit="1.5"/><path fill="#ff0000" d="M 591.960938 441.433594 L 617.171875 441.433594 L 617.171875 545.234375 L 591.960938 545.234375 Z M 591.960938 441.433594 " fill-opacity="1" fill-rule="evenodd"/><path stroke-linecap="round" transform="matrix(0.500625, 0.000100119, 0.000100125, 0.602384, 474.674281, -658.713251)" fill="none" stroke-linejoin="round" d="M 259.034143 1700.496984 L 259.408375 2092.131238 " stroke="#ff0000" stroke-width="9.06" stroke-opacity="1" stroke-miterlimit="1.5"/><path stroke-linecap="round" transform="matrix(0.550132, 0, 0, 0.51152, 131.204186, -56.409332)" fill-opacity="1" fill="#4fc100" fill-rule="evenodd" stroke-linejoin="round" d="M 288.792645 1703.400218 L 334.101412 1703.400218 L 334.101412 1853.137745 L 288.792645 1853.137745 Z M 288.792645 1703.400218 " stroke="#4fc100" stroke-width="0.94" stroke-opacity="1" stroke-miterlimit="1.5"/><path stroke-linecap="round" transform="matrix(0.500625, 0, 0, 0.500597, 173.842371, -93.305842)" fill="none" stroke-linejoin="round" d="M 259.030679 1700.502843 L 259.405211 2092.128919 " stroke="#4fc100" stroke-width="10.020001" stroke-opacity="1" stroke-miterlimit="1.5"/><path stroke-linecap="round" transform="matrix(0.550132, 0, 0, 0.51152, 560.876922, -327.12172)" fill-opacity="1" fill="#4fc100" fill-rule="evenodd" stroke-linejoin="round" d="M 288.798181 1703.403053 L 334.099847 1703.403053 L 334.099847 1853.14058 L 288.798181 1853.14058 Z M 288.798181 1703.403053 " stroke="#4fc100" stroke-width="0.94" stroke-opacity="1" stroke-miterlimit="1.5"/><path stroke-linecap="round" transform="matrix(0.500625, 0, 0, 0.500597, 603.515054, -364.018728)" fill="none" stroke-linejoin="round" d="M 259.029065 1700.498934 L 259.403597 2092.132813 " stroke="#4fc100" stroke-width="10.020001" stroke-opacity="1" stroke-miterlimit="1.5"/><path stroke-linecap="round" transform="matrix(0.550132, 0, 0, 0.51152, -86.489974, -36.057527)" fill-opacity="1" fill="#4fc100" fill-rule="evenodd" stroke-linejoin="round" d="M 288.797651 1703.399743 L 334.099317 1703.399743 L 334.099317 1853.13727 L 288.797651 1853.13727 Z M 288.797651 1703.399743 " stroke="#4fc100" stroke-width="0.94" stroke-opacity="1" stroke-miterlimit="1.5"/><path stroke-linecap="round" transform="matrix(0.500625, 0, 0, 0.500597, -43.851768, -72.954534)" fill="none" stroke-linejoin="round" d="M 259.028334 1700.503353 L 259.410669 2092.129429 " stroke="#4fc100" stroke-width="10.020001" stroke-opacity="1" stroke-miterlimit="1.5"/><path stroke-linecap="round" transform="matrix(0.550132, 0, 0, 0.51152, 343.180241, -306.770413)" fill-opacity="1" fill="#4fc100" fill-rule="evenodd" stroke-linejoin="round" d="M 288.793567 1703.403552 L 334.102334 1703.403552 L 334.102334 1853.141079 L 288.793567 1853.141079 Z M 288.793567 1703.403552 " stroke="#4fc100" stroke-width="0.94" stroke-opacity="1" stroke-miterlimit="1.5"/><path stroke-linecap="round" transform="matrix(0.500625, 0, 0, 0.500597, 385.818412, -343.666893)" fill="none" stroke-linejoin="round" d="M 259.031721 1700.498389 L 259.406253 2092.132269 " stroke="#4fc100" stroke-width="10.020001" stroke-opacity="1" stroke-miterlimit="1.5"/><path fill="#ff0000" d="M -19.074219 861.035156 L 5.851562 861.035156 L 5.851562 937.628906 L -19.074219 937.628906 Z M -19.074219 861.035156 " fill-opacity="1" fill-rule="evenodd"/><path fill="#ff0000" d="M 410.597656 590.320312 L 435.523438 590.320312 L 435.523438 666.917969 L 410.597656 666.917969 Z M 410.597656 590.320312 " fill-opacity="1" fill-rule="evenodd"/><path stroke-linecap="round" transform="matrix(0.500625, 0, 0, 0.500597, 294.359789, -317.898187)" fill="none" stroke-linejoin="round" d="M 259.034901 1700.500037 L 259.409433 2092.126113 " stroke="#ff0000" stroke-width="10.020001" stroke-opacity="1" stroke-miterlimit="1.5"/><path fill="#ff0000" d="M 12.90625 929.292969 L 37.832031 929.292969 L 37.832031 1005.886719 L 12.90625 1005.886719 Z M 12.90625 929.292969 " fill-opacity="1" fill-rule="evenodd"/><g clip-path="url(#34eb4611e5)"><path stroke-linecap="round" transform="matrix(0.500625, 0, 0, 0.500597, -103.329494, 21.072605)" fill="none" stroke-linejoin="round" d="M 259.030658 1700.503761 L 259.40519 2092.129837 " stroke="#ff0000" stroke-width="10.020001" stroke-opacity="1" stroke-miterlimit="1.5"/></g><path fill="#ff0000" d="M 442.578125 658.578125 L 467.5 658.578125 L 467.5 735.175781 L 442.578125 735.175781 Z M 442.578125 658.578125 " fill-opacity="1" fill-rule="evenodd"/><path stroke-linecap="round" transform="matrix(0.500625, 0, 0, 0.500597, 326.339229, -249.639812)" fill="none" stroke-linejoin="round" d="M 259.029152 1700.498913 L 259.403684 2092.132793 " stroke="#ff0000" stroke-width="10.020001" stroke-opacity="1" stroke-miterlimit="1.5"/><path fill="#ff0000" d="M 130.609375 646.578125 L 155.535156 646.578125 L 155.535156 723.171875 L 130.609375 723.171875 Z M 130.609375 646.578125 " fill-opacity="1" fill-rule="evenodd"/><path stroke-linecap="round" transform="matrix(0.500625, 0, 0, 0.500597, 14.372881, -261.64157)" fill="none" stroke-linejoin="round" d="M 259.032158 1700.502426 L 259.40669 2092.128502 " stroke="#ff0000" stroke-width="10.020001" stroke-opacity="1" stroke-miterlimit="1.5"/><path fill="#ff0000" d="M 560.277344 375.867188 L 585.203125 375.867188 L 585.203125 452.460938 L 560.277344 452.460938 Z M 560.277344 375.867188 " fill-opacity="1" fill-rule="evenodd"/><g clip-path="url(#8055aafecd)"><path stroke-linecap="round" transform="matrix(0.500625, 0, 0, 0.500597, 444.041116, -532.353958)" fill="none" stroke-linejoin="round" d="M 259.031626 1700.497519 L 259.406158 2092.131398 " stroke="#ff0000" stroke-width="10.020001" stroke-opacity="1" stroke-miterlimit="1.5"/></g><path stroke-linecap="round" transform="matrix(0.550132, 0, 0, 0.51152, 96.795742, 7.989999)" fill-opacity="1" fill="#4fc100" fill-rule="evenodd" stroke-linejoin="round" d="M 288.796633 1703.398471 L 334.1054 1703.398471 L 334.1054 1853.135998 L 288.796633 1853.135998 Z M 288.796633 1703.398471 " stroke="#4fc100" stroke-width="0.94" stroke-opacity="1" stroke-miterlimit="1.5"/><path stroke-linecap="round" transform="matrix(0.500625, 0, 0, 0.500597, 139.433941, -28.90701)" fill="none" stroke-linejoin="round" d="M 259.02723 1700.502055 L 259.409565 2092.128131 " stroke="#4fc100" stroke-width="10.020001" stroke-opacity="1" stroke-miterlimit="1.5"/><path stroke-linecap="round" transform="matrix(0.550132, 0, 0, 0.51152, 526.463949, -262.722916)" fill-opacity="1" fill="#4fc100" fill-rule="evenodd" stroke-linejoin="round" d="M 288.796201 1703.402338 L 334.104968 1703.402338 L 334.104968 1853.139865 L 288.796201 1853.139865 Z M 288.796201 1703.402338 " stroke="#4fc100" stroke-width="0.94" stroke-opacity="1" stroke-miterlimit="1.5"/><path stroke-linecap="round" transform="matrix(0.500625, 0, 0, 0.500597, 569.102129, -299.619397)" fill="none" stroke-linejoin="round" d="M 259.034596 1700.497149 L 259.409128 2092.131028 " stroke="#4fc100" stroke-width="10.020001" stroke-opacity="1" stroke-miterlimit="1.5"/><path fill="#ff0000" d="M 227.839844 861.773438 L 248.5625 861.773438 L 248.5625 898.230469 L 227.839844 898.230469 Z M 227.839844 861.773438 " fill-opacity="1" fill-rule="evenodd"/><path stroke-linecap="round" transform="matrix(0.500625, -0.000180215, -0.000180225, 0.312883, 108.432753, 293.83595)" fill="none" stroke-linejoin="round" d="M 259.03317 1700.501529 L 259.40824 2092.13399 " stroke="#ff0000" stroke-width="12.020001" stroke-opacity="1" stroke-miterlimit="1.5"/><path fill="#ff0000" d="M 657.507812 591.058594 L 678.234375 591.058594 L 678.234375 627.519531 L 657.507812 627.519531 Z M 657.507812 591.058594 " fill-opacity="1" fill-rule="evenodd"/><path stroke-linecap="round" transform="matrix(0.500625, -0.000180215, -0.000180225, 0.312883, 538.103468, 23.123562)" fill="none" stroke-linejoin="round" d="M 259.027687 1700.506164 L 259.410555 2092.126144 " stroke="#ff0000" stroke-width="12.020001" stroke-opacity="1" stroke-miterlimit="1.5"/><path stroke-linecap="round" transform="matrix(0.5812, 0, 0, 0.556118, 131.425437, -217.703701)" fill-opacity="1" fill="#4fc100" fill-rule="evenodd" stroke-linejoin="round" d="M 382.143534 1598.356918 L 417.80519 1598.356918 L 417.80519 1663.92019 L 382.143534 1663.92019 Z M 382.143534 1598.356918 " stroke="#4fc100" stroke-width="0.88" stroke-opacity="1" stroke-miterlimit="1.5"/><path stroke-linecap="round" transform="matrix(0.500625, -0.000295352, -0.000295369, 0.193871, 234.333879, 320.977834)" fill="none" stroke-linejoin="round" d="M 259.028773 1700.493446 L 259.408087 2092.123932 " stroke="#4fc100" stroke-width="13.22" stroke-opacity="1" stroke-miterlimit="1.5"/><path stroke-linecap="round" transform="matrix(0.5812, 0, 0, 0.556118, 561.097122, -488.416058)" fill-opacity="1" fill="#4fc100" fill-rule="evenodd" stroke-linejoin="round" d="M 382.143862 1598.359469 L 417.805518 1598.359469 L 417.805518 1663.915718 L 382.143862 1663.915718 Z M 382.143862 1598.359469 " stroke="#4fc100" stroke-width="0.88" stroke-opacity="1" stroke-miterlimit="1.5"/><path stroke-linecap="round" transform="matrix(0.500625, -0.000295352, -0.000295369, 0.193871, 664.005609, 50.265415)" fill="none" stroke-linejoin="round" d="M 259.029067 1700.501087 L 259.408382 2092.131573 " stroke="#4fc100" stroke-width="13.22" stroke-opacity="1" stroke-miterlimit="1.5"/><path fill="#ff0000" d="M 378.925781 637.539062 L 399.652344 637.539062 L 399.652344 674 L 378.925781 674 Z M 378.925781 637.539062 " fill-opacity="1" fill-rule="evenodd"/><path stroke-linecap="round" transform="matrix(0.500625, -0.000295352, -0.000295369, 0.193871, 259.732114, 287.344203)" fill="none" stroke-linejoin="round" d="M 259.029179 1700.497667 L 259.408494 2092.128153 " stroke="#ff0000" stroke-width="13.22" stroke-opacity="1" stroke-miterlimit="1.5"/><path fill="#ff0000" d="M 808.597656 366.828125 L 829.320312 366.828125 L 829.320312 403.285156 L 808.597656 403.285156 Z M 808.597656 366.828125 " fill-opacity="1" fill-rule="evenodd"/><path fill="#ff0000" d="M 44.957031 905.832031 L 65.679688 905.832031 L 65.679688 942.292969 L 44.957031 942.292969 Z M 44.957031 905.832031 " fill-opacity="1" fill-rule="evenodd"/><path stroke-linecap="round" transform="matrix(0.500625, -0.000295352, -0.000295369, 0.193871, -74.239194, 555.637204)" fill="none" stroke-linejoin="round" d="M 259.03429 1700.497509 L 259.405802 2092.127984 " stroke="#ff0000" stroke-width="13.22" stroke-opacity="1" stroke-miterlimit="1.5"/><path fill="#ff0000" d="M 474.625 635.121094 L 495.351562 635.121094 L 495.351562 671.578125 L 474.625 671.578125 Z M 474.625 635.121094 " fill-opacity="1" fill-rule="evenodd"/><path stroke-linecap="round" transform="matrix(0.500625, -0.000295352, -0.000295369, 0.193871, 355.430992, 284.924809)" fill="none" stroke-linejoin="round" d="M 259.029864 1700.50502 L 259.409178 2092.135506 " stroke="#ff0000" stroke-width="13.22" stroke-opacity="1" stroke-miterlimit="1.5"/><path stroke-linecap="round" transform="matrix(0.500625, 0, 0, 0.500597, 81.370485, -71.481314)" fill-opacity="1" fill="#4fc100" fill-rule="evenodd" stroke-linejoin="round" d="M 485.402552 1543.650473 L 532.609196 1543.650473 L 532.609196 1806.328974 L 485.402552 1806.328974 Z M 485.402552 1543.650473 " stroke="#4fc100" stroke-width="1" stroke-opacity="1" stroke-miterlimit="1.5"/><path stroke-linecap="round" transform="matrix(0.500625, 0.000215257, 0.000215269, 0.727358, 205.88587, -615.557319)" fill="none" stroke-linejoin="round" d="M 259.031863 1700.501523 L 259.409654 2092.131995 " stroke="#4fc100" stroke-width="8.03" stroke-opacity="1" stroke-miterlimit="1.5"/><path stroke-linecap="round" transform="matrix(0.500625, 0, 0, 0.500597, 511.039654, -342.193673)" fill-opacity="1" fill="#4fc100" fill-rule="evenodd" stroke-linejoin="round" d="M 485.407957 1543.653313 L 532.614601 1543.653313 L 532.614601 1806.32401 L 485.407957 1806.32401 Z M 485.407957 1543.653313 " stroke="#4fc100" stroke-width="1" stroke-opacity="1" stroke-miterlimit="1.5"/><path stroke-linecap="round" transform="matrix(0.500625, 0.000215257, 0.000215269, 0.727358, 635.555051, -886.269543)" fill="none" stroke-linejoin="round" d="M 259.029443 1700.497923 L 259.407234 2092.128394 " stroke="#4fc100" stroke-width="8.03" stroke-opacity="1" stroke-miterlimit="1.5"/><path stroke-linecap="round" transform="matrix(0.500625, 0, 0, 0.500597, -139.807513, -62.268295)" fill-opacity="1" fill="#4fc100" fill-rule="evenodd" stroke-linejoin="round" d="M 485.40698 1543.646316 L 532.613623 1543.646316 L 532.613623 1806.324817 L 485.40698 1806.324817 Z M 485.40698 1543.646316 " stroke="#4fc100" stroke-width="1" stroke-opacity="1" stroke-miterlimit="1.5"/><path stroke-linecap="round" transform="matrix(0.500625, 0.000215257, 0.000215269, 0.727358, -15.292128, -606.344271)" fill="none" stroke-linejoin="round" d="M 259.028489 1700.498624 L 259.40628 2092.129095 " stroke="#4fc100" stroke-width="8.03" stroke-opacity="1" stroke-miterlimit="1.5"/><path stroke-linecap="round" transform="matrix(0.500625, 0, 0, 0.500597, 289.86266, -332.980685)" fill-opacity="1" fill="#4fc100" fill-rule="evenodd" stroke-linejoin="round" d="M 485.402578 1543.649218 L 532.609221 1543.649218 L 532.609221 1806.327719 L 485.402578 1806.327719 Z M 485.402578 1543.649218 " stroke="#4fc100" stroke-width="1" stroke-opacity="1" stroke-miterlimit="1.5"/><path stroke-linecap="round" transform="matrix(0.500625, 0.000215257, 0.000215269, 0.727358, 414.37803, -877.056616)" fill="none" stroke-linejoin="round" d="M 259.031917 1700.500557 L 259.409709 2092.131029 " stroke="#4fc100" stroke-width="8.03" stroke-opacity="1" stroke-miterlimit="1.5"/></svg>